<svg xmlns="http://www.w3.org/2000/svg" version="1.1" xmlns:xlink="http://www.w3.org/1999/xlink" xmlns:svgjs="http://svgjs.dev/svgjs" width="1920" height="1080" preserveAspectRatio="none" viewBox="0 0 1920 1080">
    <g mask="url(&quot;#SvgjsMask1014&quot;)" fill="none">
        <rect width="1920" height="1080" x="0" y="0" fill="#0e2a47"></rect>
        <path d="M12.67 -26.93L124.39 37.57L124.39 166.57L12.67 231.07L-99.05 166.57L-99.05 37.57zM12.67 360.07L124.39 424.57L124.39 553.57L12.67 618.07L-99.05 553.57L-99.05 424.57zM12.67 747.07L124.39 811.57L124.39 940.57L12.67 1005.07L-99.05 940.57L-99.05 811.57zM347.83 166.57L459.55 231.07L459.55 360.07L347.83 424.57L236.11 360.07L236.11 231.07zM236.11 747.07L347.83 811.57L347.83 940.57L236.11 1005.07L124.39 940.57L124.39 811.57zM347.83 940.57L459.55 1005.07L459.55 1134.07L347.83 1198.57L236.11 1134.07L236.11 1005.07zM236.11 1134.07L347.83 1198.57L347.83 1327.57L236.11 1392.07L124.39 1327.57L124.39 1198.57zM571.27 166.57L682.99 231.07L682.99 360.07L571.27 424.57L459.55 360.07L459.55 231.07zM459.55 360.07L571.27 424.57L571.27 553.57L459.55 618.07L347.83 553.57L347.83 424.57zM571.27 940.57L682.99 1005.07L682.99 1134.07L571.27 1198.57L459.55 1134.07L459.55 1005.07zM682.99 -26.93L794.71 37.57L794.71 166.57L682.99 231.07L571.27 166.57L571.27 37.57zM794.71 166.57L906.43 231.07L906.43 360.07L794.71 424.57L682.99 360.07L682.99 231.07zM794.71 940.57L906.43 1005.07L906.43 1134.07L794.71 1198.57L682.99 1134.07L682.99 1005.07zM906.43 360.07L1018.15 424.57L1018.15 553.57L906.43 618.07L794.71 553.57L794.71 424.57zM906.43 747.07L1018.15 811.57L1018.15 940.57L906.43 1005.07L794.71 940.57L794.71 811.57zM1018.15 940.57L1129.87 1005.07L1129.87 1134.07L1018.15 1198.57L906.43 1134.07L906.43 1005.07zM906.43 1134.07L1018.15 1198.57L1018.15 1327.57L906.43 1392.07L794.71 1327.57L794.71 1198.57zM1241.59 166.57L1353.32 231.07L1353.32 360.07L1241.59 424.57L1129.87 360.07L1129.87 231.07zM1129.87 360.07L1241.59 424.57L1241.59 553.57L1129.87 618.07L1018.15 553.57L1018.15 424.57zM1129.87 1134.07L1241.59 1198.57L1241.59 1327.57L1129.87 1392.07L1018.15 1327.57L1018.15 1198.57zM1353.32 -26.93L1465.04 37.57L1465.04 166.57L1353.32 231.07L1241.59 166.57L1241.59 37.57zM1465.04 166.57L1576.76 231.07L1576.76 360.07L1465.04 424.57L1353.32 360.07L1353.32 231.07zM1353.32 360.07L1465.04 424.57L1465.04 553.57L1353.32 618.07L1241.59 553.57L1241.59 424.57zM1465.04 553.57L1576.76 618.07L1576.76 747.07L1465.04 811.57L1353.32 747.07L1353.32 618.07zM1353.32 747.07L1465.04 811.57L1465.04 940.57L1353.32 1005.07L1241.59 940.57L1241.59 811.57zM1465.04 940.57L1576.76 1005.07L1576.76 1134.07L1465.04 1198.57L1353.32 1134.07L1353.32 1005.07zM1353.32 1134.07L1465.04 1198.57L1465.04 1327.57L1353.32 1392.07L1241.59 1327.57L1241.59 1198.57zM1688.48 166.57L1800.2 231.07L1800.2 360.07L1688.48 424.57L1576.76 360.07L1576.76 231.07zM1576.76 747.07L1688.48 811.57L1688.48 940.57L1576.76 1005.07L1465.04 940.57L1465.04 811.57zM1688.48 940.57L1800.2 1005.07L1800.2 1134.07L1688.48 1198.57L1576.76 1134.07L1576.76 1005.07zM1576.76 1134.07L1688.48 1198.57L1688.48 1327.57L1576.76 1392.07L1465.04 1327.57L1465.04 1198.57zM1911.92 166.57L2023.64 231.07L2023.64 360.07L1911.92 424.57L1800.2 360.07L1800.2 231.07zM1800.2 360.07L1911.92 424.57L1911.92 553.57L1800.2 618.07L1688.48 553.57L1688.48 424.57zM1911.92 940.57L2023.64 1005.07L2023.64 1134.07L1911.92 1198.57L1800.2 1134.07L1800.2 1005.07z" stroke="#03305d" stroke-width="2"></path>
        <path d="M-0.23 -26.93 a12.9 12.9 0 1 0 25.8 0 a12.9 12.9 0 1 0 -25.8 0zM111.49 37.57 a12.9 12.9 0 1 0 25.8 0 a12.9 12.9 0 1 0 -25.8 0zM111.49 166.57 a12.9 12.9 0 1 0 25.8 0 a12.9 12.9 0 1 0 -25.8 0zM-0.23 231.07 a12.9 12.9 0 1 0 25.8 0 a12.9 12.9 0 1 0 -25.8 0zM-111.95 166.57 a12.9 12.9 0 1 0 25.8 0 a12.9 12.9 0 1 0 -25.8 0zM-111.95 37.57 a12.9 12.9 0 1 0 25.8 0 a12.9 12.9 0 1 0 -25.8 0zM-0.23 360.07 a12.9 12.9 0 1 0 25.8 0 a12.9 12.9 0 1 0 -25.8 0zM111.49 424.57 a12.9 12.9 0 1 0 25.8 0 a12.9 12.9 0 1 0 -25.8 0zM111.49 553.57 a12.9 12.9 0 1 0 25.8 0 a12.9 12.9 0 1 0 -25.8 0zM-0.23 618.07 a12.9 12.9 0 1 0 25.8 0 a12.9 12.9 0 1 0 -25.8 0zM-111.95 553.57 a12.9 12.9 0 1 0 25.8 0 a12.9 12.9 0 1 0 -25.8 0zM-111.95 424.57 a12.9 12.9 0 1 0 25.8 0 a12.9 12.9 0 1 0 -25.8 0zM-0.23 747.07 a12.9 12.9 0 1 0 25.8 0 a12.9 12.9 0 1 0 -25.8 0zM111.49 811.57 a12.9 12.9 0 1 0 25.8 0 a12.9 12.9 0 1 0 -25.8 0zM111.49 940.57 a12.9 12.9 0 1 0 25.8 0 a12.9 12.9 0 1 0 -25.8 0zM-0.23 1005.07 a12.9 12.9 0 1 0 25.8 0 a12.9 12.9 0 1 0 -25.8 0zM-111.95 940.57 a12.9 12.9 0 1 0 25.8 0 a12.9 12.9 0 1 0 -25.8 0zM-111.95 811.57 a12.9 12.9 0 1 0 25.8 0 a12.9 12.9 0 1 0 -25.8 0zM334.93 166.57 a12.9 12.9 0 1 0 25.8 0 a12.9 12.9 0 1 0 -25.8 0zM446.65 231.07 a12.9 12.9 0 1 0 25.8 0 a12.9 12.9 0 1 0 -25.8 0zM446.65 360.07 a12.9 12.9 0 1 0 25.8 0 a12.9 12.9 0 1 0 -25.8 0zM334.93 424.57 a12.9 12.9 0 1 0 25.8 0 a12.9 12.9 0 1 0 -25.8 0zM223.21 360.07 a12.9 12.9 0 1 0 25.8 0 a12.9 12.9 0 1 0 -25.8 0zM223.21 231.07 a12.9 12.9 0 1 0 25.8 0 a12.9 12.9 0 1 0 -25.8 0zM223.21 747.07 a12.9 12.9 0 1 0 25.8 0 a12.9 12.9 0 1 0 -25.8 0zM334.93 811.57 a12.9 12.9 0 1 0 25.8 0 a12.9 12.9 0 1 0 -25.8 0zM334.93 940.57 a12.9 12.9 0 1 0 25.8 0 a12.9 12.9 0 1 0 -25.8 0zM223.21 1005.07 a12.9 12.9 0 1 0 25.8 0 a12.9 12.9 0 1 0 -25.8 0zM446.65 1005.07 a12.9 12.9 0 1 0 25.8 0 a12.9 12.9 0 1 0 -25.8 0zM446.65 1134.07 a12.9 12.9 0 1 0 25.8 0 a12.9 12.9 0 1 0 -25.8 0zM334.93 1198.57 a12.9 12.9 0 1 0 25.8 0 a12.9 12.9 0 1 0 -25.8 0zM223.21 1134.07 a12.9 12.9 0 1 0 25.8 0 a12.9 12.9 0 1 0 -25.8 0zM334.93 1327.57 a12.9 12.9 0 1 0 25.8 0 a12.9 12.9 0 1 0 -25.8 0zM223.21 1392.07 a12.9 12.9 0 1 0 25.8 0 a12.9 12.9 0 1 0 -25.8 0zM111.49 1327.57 a12.9 12.9 0 1 0 25.8 0 a12.9 12.9 0 1 0 -25.8 0zM111.49 1198.57 a12.9 12.9 0 1 0 25.8 0 a12.9 12.9 0 1 0 -25.8 0zM558.37 166.57 a12.9 12.9 0 1 0 25.8 0 a12.9 12.9 0 1 0 -25.8 0zM670.09 231.07 a12.9 12.9 0 1 0 25.8 0 a12.9 12.9 0 1 0 -25.8 0zM670.09 360.07 a12.9 12.9 0 1 0 25.8 0 a12.9 12.9 0 1 0 -25.8 0zM558.37 424.57 a12.9 12.9 0 1 0 25.8 0 a12.9 12.9 0 1 0 -25.8 0zM558.37 553.57 a12.9 12.9 0 1 0 25.8 0 a12.9 12.9 0 1 0 -25.8 0zM446.65 618.07 a12.9 12.9 0 1 0 25.8 0 a12.9 12.9 0 1 0 -25.8 0zM334.93 553.57 a12.9 12.9 0 1 0 25.8 0 a12.9 12.9 0 1 0 -25.8 0zM558.37 940.57 a12.9 12.9 0 1 0 25.8 0 a12.9 12.9 0 1 0 -25.8 0zM670.09 1005.07 a12.9 12.9 0 1 0 25.8 0 a12.9 12.9 0 1 0 -25.8 0zM670.09 1134.07 a12.9 12.9 0 1 0 25.8 0 a12.9 12.9 0 1 0 -25.8 0zM558.37 1198.57 a12.9 12.9 0 1 0 25.8 0 a12.9 12.9 0 1 0 -25.8 0zM670.09 -26.93 a12.9 12.9 0 1 0 25.8 0 a12.9 12.9 0 1 0 -25.8 0zM781.81 37.57 a12.9 12.9 0 1 0 25.8 0 a12.9 12.9 0 1 0 -25.8 0zM781.81 166.57 a12.9 12.9 0 1 0 25.8 0 a12.9 12.9 0 1 0 -25.8 0zM558.37 37.57 a12.9 12.9 0 1 0 25.8 0 a12.9 12.9 0 1 0 -25.8 0zM893.53 231.07 a12.9 12.9 0 1 0 25.8 0 a12.9 12.9 0 1 0 -25.8 0zM893.53 360.07 a12.9 12.9 0 1 0 25.8 0 a12.9 12.9 0 1 0 -25.8 0zM781.81 424.57 a12.9 12.9 0 1 0 25.8 0 a12.9 12.9 0 1 0 -25.8 0zM781.81 940.57 a12.9 12.9 0 1 0 25.8 0 a12.9 12.9 0 1 0 -25.8 0zM893.53 1005.07 a12.9 12.9 0 1 0 25.8 0 a12.9 12.9 0 1 0 -25.8 0zM893.53 1134.07 a12.9 12.9 0 1 0 25.8 0 a12.9 12.9 0 1 0 -25.8 0zM781.81 1198.57 a12.9 12.9 0 1 0 25.8 0 a12.9 12.9 0 1 0 -25.8 0zM1005.25 424.57 a12.9 12.9 0 1 0 25.8 0 a12.9 12.9 0 1 0 -25.8 0zM1005.25 553.57 a12.9 12.9 0 1 0 25.8 0 a12.9 12.9 0 1 0 -25.8 0zM893.53 618.07 a12.9 12.9 0 1 0 25.8 0 a12.9 12.9 0 1 0 -25.8 0zM781.81 553.57 a12.9 12.9 0 1 0 25.8 0 a12.9 12.9 0 1 0 -25.8 0zM893.53 747.07 a12.9 12.9 0 1 0 25.8 0 a12.9 12.9 0 1 0 -25.8 0zM1005.25 811.57 a12.9 12.9 0 1 0 25.8 0 a12.9 12.9 0 1 0 -25.8 0zM1005.25 940.57 a12.9 12.9 0 1 0 25.8 0 a12.9 12.9 0 1 0 -25.8 0zM781.81 811.57 a12.9 12.9 0 1 0 25.8 0 a12.9 12.9 0 1 0 -25.8 0zM1116.97 1005.07 a12.9 12.9 0 1 0 25.8 0 a12.9 12.9 0 1 0 -25.8 0zM1116.97 1134.07 a12.9 12.9 0 1 0 25.8 0 a12.9 12.9 0 1 0 -25.8 0zM1005.25 1198.57 a12.9 12.9 0 1 0 25.8 0 a12.9 12.9 0 1 0 -25.8 0zM1005.25 1327.57 a12.9 12.9 0 1 0 25.8 0 a12.9 12.9 0 1 0 -25.8 0zM893.53 1392.07 a12.9 12.9 0 1 0 25.8 0 a12.9 12.9 0 1 0 -25.8 0zM781.81 1327.57 a12.9 12.9 0 1 0 25.8 0 a12.9 12.9 0 1 0 -25.8 0zM1228.69 166.57 a12.9 12.9 0 1 0 25.8 0 a12.9 12.9 0 1 0 -25.8 0zM1340.42 231.07 a12.9 12.9 0 1 0 25.8 0 a12.9 12.9 0 1 0 -25.8 0zM1340.42 360.07 a12.9 12.9 0 1 0 25.8 0 a12.9 12.9 0 1 0 -25.8 0zM1228.69 424.57 a12.9 12.9 0 1 0 25.8 0 a12.9 12.9 0 1 0 -25.8 0zM1116.97 360.07 a12.9 12.9 0 1 0 25.8 0 a12.9 12.9 0 1 0 -25.8 0zM1116.97 231.07 a12.9 12.9 0 1 0 25.8 0 a12.9 12.9 0 1 0 -25.8 0zM1228.69 553.57 a12.9 12.9 0 1 0 25.8 0 a12.9 12.9 0 1 0 -25.8 0zM1116.97 618.07 a12.9 12.9 0 1 0 25.8 0 a12.9 12.9 0 1 0 -25.8 0zM1228.69 1198.57 a12.9 12.9 0 1 0 25.8 0 a12.9 12.9 0 1 0 -25.8 0zM1228.69 1327.57 a12.9 12.9 0 1 0 25.8 0 a12.9 12.9 0 1 0 -25.8 0zM1116.97 1392.07 a12.9 12.9 0 1 0 25.8 0 a12.9 12.9 0 1 0 -25.8 0zM1340.42 -26.93 a12.9 12.9 0 1 0 25.8 0 a12.9 12.9 0 1 0 -25.8 0zM1452.14 37.57 a12.9 12.9 0 1 0 25.8 0 a12.9 12.9 0 1 0 -25.8 0zM1452.14 166.57 a12.9 12.9 0 1 0 25.8 0 a12.9 12.9 0 1 0 -25.8 0zM1228.69 37.57 a12.9 12.9 0 1 0 25.8 0 a12.9 12.9 0 1 0 -25.8 0zM1563.86 231.07 a12.9 12.9 0 1 0 25.8 0 a12.9 12.9 0 1 0 -25.8 0zM1563.86 360.07 a12.9 12.9 0 1 0 25.8 0 a12.9 12.9 0 1 0 -25.8 0zM1452.14 424.57 a12.9 12.9 0 1 0 25.8 0 a12.9 12.9 0 1 0 -25.8 0zM1452.14 553.57 a12.9 12.9 0 1 0 25.8 0 a12.9 12.9 0 1 0 -25.8 0zM1340.42 618.07 a12.9 12.9 0 1 0 25.8 0 a12.9 12.9 0 1 0 -25.8 0zM1563.86 618.07 a12.9 12.9 0 1 0 25.8 0 a12.9 12.9 0 1 0 -25.8 0zM1563.86 747.07 a12.9 12.9 0 1 0 25.8 0 a12.9 12.9 0 1 0 -25.8 0zM1452.14 811.57 a12.9 12.9 0 1 0 25.8 0 a12.9 12.9 0 1 0 -25.8 0zM1340.42 747.07 a12.9 12.9 0 1 0 25.8 0 a12.9 12.9 0 1 0 -25.8 0zM1452.14 940.57 a12.9 12.9 0 1 0 25.8 0 a12.9 12.9 0 1 0 -25.8 0zM1340.42 1005.07 a12.9 12.9 0 1 0 25.8 0 a12.9 12.9 0 1 0 -25.8 0zM1228.69 940.57 a12.9 12.9 0 1 0 25.8 0 a12.9 12.9 0 1 0 -25.8 0zM1228.69 811.57 a12.9 12.9 0 1 0 25.8 0 a12.9 12.9 0 1 0 -25.8 0zM1563.86 1005.07 a12.9 12.9 0 1 0 25.8 0 a12.9 12.9 0 1 0 -25.8 0zM1563.86 1134.07 a12.9 12.9 0 1 0 25.8 0 a12.9 12.9 0 1 0 -25.8 0zM1452.14 1198.57 a12.9 12.9 0 1 0 25.8 0 a12.9 12.9 0 1 0 -25.8 0zM1340.42 1134.07 a12.9 12.9 0 1 0 25.8 0 a12.9 12.9 0 1 0 -25.8 0zM1452.14 1327.57 a12.9 12.9 0 1 0 25.8 0 a12.9 12.9 0 1 0 -25.8 0zM1340.42 1392.07 a12.9 12.9 0 1 0 25.8 0 a12.9 12.9 0 1 0 -25.8 0zM1675.58 166.57 a12.9 12.9 0 1 0 25.8 0 a12.9 12.9 0 1 0 -25.8 0zM1787.3 231.07 a12.9 12.9 0 1 0 25.8 0 a12.9 12.9 0 1 0 -25.8 0zM1787.3 360.07 a12.9 12.9 0 1 0 25.8 0 a12.9 12.9 0 1 0 -25.8 0zM1675.58 424.57 a12.9 12.9 0 1 0 25.8 0 a12.9 12.9 0 1 0 -25.8 0zM1675.58 811.57 a12.9 12.9 0 1 0 25.8 0 a12.9 12.9 0 1 0 -25.8 0zM1675.58 940.57 a12.9 12.9 0 1 0 25.8 0 a12.9 12.9 0 1 0 -25.8 0zM1787.3 1005.07 a12.9 12.9 0 1 0 25.8 0 a12.9 12.9 0 1 0 -25.8 0zM1787.3 1134.07 a12.9 12.9 0 1 0 25.8 0 a12.9 12.9 0 1 0 -25.8 0zM1675.58 1198.57 a12.9 12.9 0 1 0 25.8 0 a12.9 12.9 0 1 0 -25.8 0zM1675.58 1327.57 a12.9 12.9 0 1 0 25.8 0 a12.9 12.9 0 1 0 -25.8 0zM1563.86 1392.07 a12.9 12.9 0 1 0 25.8 0 a12.9 12.9 0 1 0 -25.8 0zM1899.02 166.57 a12.9 12.9 0 1 0 25.8 0 a12.9 12.9 0 1 0 -25.8 0zM2010.74 231.07 a12.9 12.9 0 1 0 25.8 0 a12.9 12.9 0 1 0 -25.8 0zM2010.74 360.07 a12.9 12.9 0 1 0 25.8 0 a12.9 12.9 0 1 0 -25.8 0zM1899.02 424.57 a12.9 12.9 0 1 0 25.8 0 a12.9 12.9 0 1 0 -25.8 0zM1899.02 553.57 a12.9 12.9 0 1 0 25.8 0 a12.9 12.9 0 1 0 -25.8 0zM1787.3 618.07 a12.9 12.9 0 1 0 25.8 0 a12.9 12.9 0 1 0 -25.8 0zM1675.58 553.57 a12.9 12.9 0 1 0 25.8 0 a12.9 12.9 0 1 0 -25.8 0zM1899.02 940.57 a12.9 12.9 0 1 0 25.8 0 a12.9 12.9 0 1 0 -25.8 0zM2010.74 1005.07 a12.9 12.9 0 1 0 25.8 0 a12.9 12.9 0 1 0 -25.8 0zM2010.74 1134.07 a12.9 12.9 0 1 0 25.8 0 a12.9 12.9 0 1 0 -25.8 0zM1899.02 1198.57 a12.9 12.9 0 1 0 25.8 0 a12.9 12.9 0 1 0 -25.8 0z" fill="#03305d"></path>
        <path d="M187.51 154.43L276.72 205.93L276.72 308.93L187.51 360.43L98.31 308.93L98.31 205.93zM98.31 617.93L187.51 669.43L187.51 772.43L98.31 823.93L9.11 772.43L9.11 669.43zM365.92 154.43L455.12 205.93L455.12 308.93L365.92 360.43L276.72 308.93L276.72 205.93zM276.72 308.93L365.92 360.43L365.92 463.43L276.72 514.93L187.51 463.43L187.51 360.43zM276.72 617.93L365.92 669.43L365.92 772.43L276.72 823.93L187.51 772.43L187.51 669.43zM365.92 772.43L455.12 823.93L455.12 926.93L365.92 978.43L276.72 926.93L276.72 823.93zM365.92 1081.43L455.12 1132.93L455.12 1235.93L365.92 1287.43L276.72 1235.93L276.72 1132.93zM455.12 -0.07L544.33 51.43L544.33 154.43L455.12 205.93L365.92 154.43L365.92 51.43zM633.53 -0.07L722.73 51.43L722.73 154.43L633.53 205.93L544.33 154.43L544.33 51.43zM722.73 154.43L811.94 205.93L811.94 308.93L722.73 360.43L633.53 308.93L633.53 205.93zM722.73 772.43L811.94 823.93L811.94 926.93L722.73 978.43L633.53 926.93L633.53 823.93zM633.53 926.93L722.73 978.43L722.73 1081.43L633.53 1132.93L544.33 1081.43L544.33 978.43zM722.73 1081.43L811.94 1132.93L811.94 1235.93L722.73 1287.43L633.53 1235.93L633.53 1132.93zM811.94 -0.07L901.14 51.43L901.14 154.43L811.94 205.93L722.73 154.43L722.73 51.43zM811.94 308.93L901.14 360.43L901.14 463.43L811.94 514.93L722.73 463.43L722.73 360.43zM901.14 772.43L990.34 823.93L990.34 926.93L901.14 978.43L811.94 926.93L811.94 823.93zM811.94 926.93L901.14 978.43L901.14 1081.43L811.94 1132.93L722.73 1081.43L722.73 978.43zM990.34 617.93L1079.54 669.43L1079.54 772.43L990.34 823.93L901.14 772.43L901.14 669.43zM990.34 926.93L1079.54 978.43L1079.54 1081.43L990.34 1132.93L901.14 1081.43L901.14 978.43zM1168.75 617.93L1257.95 669.43L1257.95 772.43L1168.75 823.93L1079.54 772.43L1079.54 669.43zM1168.75 926.93L1257.95 978.43L1257.95 1081.43L1168.75 1132.93L1079.54 1081.43L1079.54 978.43zM1257.95 1081.43L1347.15 1132.93L1347.15 1235.93L1257.95 1287.43L1168.75 1235.93L1168.75 1132.93zM1436.36 463.43L1525.56 514.93L1525.56 617.93L1436.36 669.43L1347.15 617.93L1347.15 514.93zM1436.36 772.43L1525.56 823.93L1525.56 926.93L1436.36 978.43L1347.15 926.93L1347.15 823.93zM1525.56 308.93L1614.76 360.43L1614.76 463.43L1525.56 514.93L1436.36 463.43L1436.36 360.43zM1614.76 463.43L1703.97 514.93L1703.97 617.93L1614.76 669.43L1525.56 617.93L1525.56 514.93zM1614.76 1081.43L1703.97 1132.93L1703.97 1235.93L1614.76 1287.43L1525.56 1235.93L1525.56 1132.93zM1703.97 617.93L1793.17 669.43L1793.17 772.43L1703.97 823.93L1614.76 772.43L1614.76 669.43zM1793.17 772.43L1882.37 823.93L1882.37 926.93L1793.17 978.43L1703.97 926.93L1703.97 823.93zM1882.37 -0.07L1971.58 51.43L1971.58 154.43L1882.37 205.93L1793.17 154.43L1793.17 51.43zM1971.58 463.43L2060.78 514.93L2060.78 617.93L1971.58 669.43L1882.37 617.93L1882.37 514.93zM1971.58 772.43L2060.78 823.93L2060.78 926.93L1971.58 978.43L1882.37 926.93L1882.37 823.93z" stroke="rgba(17, 143, 185, 1)" stroke-width="2"></path>
    </g>
    <defs>
        <mask id="SvgjsMask1014">
            <rect width="1920" height="1080" fill="#ffffff"></rect>
        </mask>
    </defs>
</svg>