<svg xmlns="http://www.w3.org/2000/svg" version="1.1" xmlns:xlink="http://www.w3.org/1999/xlink" xmlns:svgjs="http://svgjs.dev/svgjs" width="1920" height="560" preserveAspectRatio="none" viewBox="0 0 1920 560"><g mask="url(&quot;#SvgjsMask1004&quot;)" fill="none"><rect width="1920" height="560" x="0" y="0" fill="url(&quot;#SvgjsLinearGradient1005&quot;)"></rect><path d="M1421 95L1420 -237" stroke-width="8" stroke="url(&quot;#SvgjsLinearGradient1006&quot;)" stroke-linecap="round" class="Down"></path><path d="M347 92L346 255" stroke-width="6" stroke="url(&quot;#SvgjsLinearGradient1006&quot;)" stroke-linecap="round" class="Down"></path><path d="M877 428L876 70" stroke-width="6" stroke="url(&quot;#SvgjsLinearGradient1006&quot;)" stroke-linecap="round" class="Down"></path><path d="M1647 51L1646 365" stroke-width="8" stroke="url(&quot;#SvgjsLinearGradient1006&quot;)" stroke-linecap="round" class="Down"></path><path d="M1447 246L1446 427" stroke-width="10" stroke="url(&quot;#SvgjsLinearGradient1006&quot;)" stroke-linecap="round" class="Down"></path><path d="M1916 309L1915 725" stroke-width="8" stroke="url(&quot;#SvgjsLinearGradient1007&quot;)" stroke-linecap="round" class="Up"></path><path d="M1737 133L1736 306" stroke-width="8" stroke="url(&quot;#SvgjsLinearGradient1007&quot;)" stroke-linecap="round" class="Up"></path><path d="M1883 77L1882 -110" stroke-width="10" stroke="url(&quot;#SvgjsLinearGradient1007&quot;)" stroke-linecap="round" class="Up"></path><path d="M1439 104L1438 353" stroke-width="10" stroke="url(&quot;#SvgjsLinearGradient1007&quot;)" stroke-linecap="round" class="Up"></path><path d="M588 318L587 547" stroke-width="6" stroke="url(&quot;#SvgjsLinearGradient1007&quot;)" stroke-linecap="round" class="Up"></path><path d="M1242 210L1241 26" stroke-width="10" stroke="url(&quot;#SvgjsLinearGradient1006&quot;)" stroke-linecap="round" class="Down"></path><path d="M1666 216L1665 502" stroke-width="6" stroke="url(&quot;#SvgjsLinearGradient1006&quot;)" stroke-linecap="round" class="Down"></path><path d="M1211 38L1210 -317" stroke-width="8" stroke="url(&quot;#SvgjsLinearGradient1006&quot;)" stroke-linecap="round" class="Down"></path><path d="M1211 105L1210 344" stroke-width="8" stroke="url(&quot;#SvgjsLinearGradient1007&quot;)" stroke-linecap="round" class="Up"></path><path d="M541 432L540 722" stroke-width="6" stroke="url(&quot;#SvgjsLinearGradient1006&quot;)" stroke-linecap="round" class="Down"></path><path d="M69 519L68 739" stroke-width="8" stroke="url(&quot;#SvgjsLinearGradient1006&quot;)" stroke-linecap="round" class="Down"></path><path d="M163 496L162 270" stroke-width="10" stroke="url(&quot;#SvgjsLinearGradient1006&quot;)" stroke-linecap="round" class="Down"></path><path d="M829 208L828 433" stroke-width="8" stroke="url(&quot;#SvgjsLinearGradient1007&quot;)" stroke-linecap="round" class="Up"></path><path d="M1737 133L1736 546" stroke-width="8" stroke="url(&quot;#SvgjsLinearGradient1006&quot;)" stroke-linecap="round" class="Down"></path><path d="M645 558L644 713" stroke-width="6" stroke="url(&quot;#SvgjsLinearGradient1007&quot;)" stroke-linecap="round" class="Up"></path><path d="M219 26L218 -228" stroke-width="10" stroke="url(&quot;#SvgjsLinearGradient1006&quot;)" stroke-linecap="round" class="Down"></path><path d="M1075 339L1074 696" stroke-width="10" stroke="url(&quot;#SvgjsLinearGradient1006&quot;)" stroke-linecap="round" class="Down"></path><path d="M1451 187L1450 437" stroke-width="10" stroke="url(&quot;#SvgjsLinearGradient1007&quot;)" stroke-linecap="round" class="Up"></path><path d="M967 378L966 23" stroke-width="10" stroke="url(&quot;#SvgjsLinearGradient1007&quot;)" stroke-linecap="round" class="Up"></path><path d="M1460 100L1459 -187" stroke-width="8" stroke="url(&quot;#SvgjsLinearGradient1006&quot;)" stroke-linecap="round" class="Down"></path><path d="M14 429L13 217" stroke-width="8" stroke="url(&quot;#SvgjsLinearGradient1007&quot;)" stroke-linecap="round" class="Up"></path><path d="M591 170L590 436" stroke-width="8" stroke="url(&quot;#SvgjsLinearGradient1006&quot;)" stroke-linecap="round" class="Down"></path><path d="M530 279L529 -36" stroke-width="8" stroke="url(&quot;#SvgjsLinearGradient1007&quot;)" stroke-linecap="round" class="Up"></path><path d="M1404 103L1403 -166" stroke-width="6" stroke="url(&quot;#SvgjsLinearGradient1006&quot;)" stroke-linecap="round" class="Down"></path><path d="M867 560L866 791" stroke-width="6" stroke="url(&quot;#SvgjsLinearGradient1006&quot;)" stroke-linecap="round" class="Down"></path><path d="M1346 25L1345 332" stroke-width="6" stroke="url(&quot;#SvgjsLinearGradient1006&quot;)" stroke-linecap="round" class="Down"></path><path d="M1174 524L1173 922" stroke-width="6" stroke="url(&quot;#SvgjsLinearGradient1007&quot;)" stroke-linecap="round" class="Up"></path><path d="M176 379L175 703" stroke-width="10" stroke="url(&quot;#SvgjsLinearGradient1007&quot;)" stroke-linecap="round" class="Up"></path><path d="M1887 5L1886 248" stroke-width="8" stroke="url(&quot;#SvgjsLinearGradient1006&quot;)" stroke-linecap="round" class="Down"></path><path d="M359 144L358 -5" stroke-width="10" stroke="url(&quot;#SvgjsLinearGradient1007&quot;)" stroke-linecap="round" class="Up"></path><path d="M390 255L389 18" stroke-width="6" stroke="url(&quot;#SvgjsLinearGradient1007&quot;)" stroke-linecap="round" class="Up"></path><path d="M155 487L154 803" stroke-width="10" stroke="url(&quot;#SvgjsLinearGradient1006&quot;)" stroke-linecap="round" class="Down"></path><path d="M239 542L238 758" stroke-width="10" stroke="url(&quot;#SvgjsLinearGradient1007&quot;)" stroke-linecap="round" class="Up"></path><path d="M1074 152L1073 294" stroke-width="10" stroke="url(&quot;#SvgjsLinearGradient1006&quot;)" stroke-linecap="round" class="Down"></path><path d="M1198 331L1197 89" stroke-width="8" stroke="url(&quot;#SvgjsLinearGradient1006&quot;)" stroke-linecap="round" class="Down"></path><path d="M772 261L771 115" stroke-width="10" stroke="url(&quot;#SvgjsLinearGradient1006&quot;)" stroke-linecap="round" class="Down"></path><path d="M321 101L320 301" stroke-width="10" stroke="url(&quot;#SvgjsLinearGradient1007&quot;)" stroke-linecap="round" class="Up"></path><path d="M198 361L197 707" stroke-width="6" stroke="url(&quot;#SvgjsLinearGradient1007&quot;)" stroke-linecap="round" class="Up"></path><path d="M1625 116L1624 473" stroke-width="10" stroke="url(&quot;#SvgjsLinearGradient1007&quot;)" stroke-linecap="round" class="Up"></path><path d="M440 361L439 591" stroke-width="8" stroke="url(&quot;#SvgjsLinearGradient1007&quot;)" stroke-linecap="round" class="Up"></path><path d="M368 67L367 409" stroke-width="8" stroke="url(&quot;#SvgjsLinearGradient1007&quot;)" stroke-linecap="round" class="Up"></path><path d="M1874 286L1873 555" stroke-width="10" stroke="url(&quot;#SvgjsLinearGradient1006&quot;)" stroke-linecap="round" class="Down"></path><path d="M1653 20L1652 -198" stroke-width="8" stroke="url(&quot;#SvgjsLinearGradient1007&quot;)" stroke-linecap="round" class="Up"></path></g><defs><mask id="SvgjsMask1004"><rect width="1920" height="560" fill="#ffffff"></rect></mask><linearGradient x1="17.71%" y1="160.71%" x2="82.29%" y2="-60.71%" gradientUnits="userSpaceOnUse" id="SvgjsLinearGradient1005"><stop stop-color="rgba(14, 42, 71, 1)" offset="0.06"></stop><stop stop-color="rgba(56, 143, 255, 1)" offset="0.76"></stop></linearGradient><linearGradient x1="0%" y1="0%" x2="0%" y2="100%" id="SvgjsLinearGradient1006"><stop stop-color="rgba(17, 143, 185, 0)" offset="0"></stop><stop stop-color="rgba(17, 143, 185, 1)" offset="1"></stop></linearGradient><linearGradient x1="0%" y1="100%" x2="0%" y2="0%" id="SvgjsLinearGradient1007"><stop stop-color="rgba(17, 143, 185, 0)" offset="0"></stop><stop stop-color="rgba(17, 143, 185, 1)" offset="1"></stop></linearGradient></defs></svg>